<?xml version="1.0" encoding="UTF-8"?>
<svg id="Camada_1" xmlns="http://www.w3.org/2000/svg" version="1.1" viewBox="0 0 1366 514">
  <!-- Generator: Adobe Illustrator 29.2.1, SVG Export Plug-In . SVG Version: 2.1.0 Build 116)  -->
  <defs>
    <style>
      .st0 {
        fill: #fff;
      }

      .st1 {
        fill: #8e44ad;
        fill-rule: evenodd;
      }
    </style>
  </defs>
  <g>
    <path class="st1" d="M90.07,171.16v-65.05l-.28-.07c-.25-.51-.07-2.42-.01-2.97l.05-.36-14-4.92,122.28-11.05c.37-2.02.5-4.56-.9-5.62-.25-.18-.7-.32-1.3-.45.1-1.59-.08-3.2-1.13-3.98-5.97-4.49-131.57,10.73-133.65,12.24-.43.77-.78,1.9-1.08,3.33l-9.8-3.43c-1.94,1.3-4.95,1.03-6.85.53-8.76-2.28-22.74-3.91-26.75-8.99-2.03-5.08,5.35-6.41,9.84-7.44,3.36-.78,6.85-1.36,10.16-2.28,25.41-7.1,50.99-13.92,76.51-20.73,17.32-4.62,34.64-9.22,52.01-13.65,6.07-1.54,12.19-3.09,18.28-4.54,2.04-.49,5.52-1.44,7.82-1.73l154.17,40.32c4.51,1.26,15.9,2.97,19.15,5.6,1.46,1.19,2.07,2.84,2.31,4.51-3.17,4.54-35.43,11.58-40.77,12.8-11.3,2.56-32.52,6.68-42.03,12.01l-1.78.98-.14,1.82c-.3,3.63-.34,12.86-.3,23.26-27.1-18.96-63.06-26.43-103.85-12.61l-.54.2c-8.92,1.03-18.16,3.1-27.66,6.33-23.14,7.84-44.73,24.4-59.74,45.96h0ZM320.12,86.31c4.06-1.09,8.09-2.26,11.78-3.52l7.65-2.63-19.43,6.15Z"/>
    <path class="st1" d="M184.8,72.68c.37-2.02.49-4.56-.91-5.62-5.98-4.49-131.57,10.72-133.66,12.24-4.81,8.88-1.71,67.07-1.51,83.54h9.77v-.33c-.25-8.59-.25-17.22-.39-25.81l-.09-4.66,1.21.55v-20.64l-.43-17.28.33-10.66,125.69-11.34Z"/>
    <path class="st1" d="M235.29,319.06c15.11-18.83,35.78-49.33,38.85-73.13,6.82-53.01-32.3-94.43-79.62-96.99-74.25-4.03-109.94,73.15-83.52,125.4,14.78,29.2,83.37,77.32,109.82,91.04,46.43,34.57,1.15,33.45-10.27,25.71-38.82-26.32-101.14-60.72-125.26-101.85-41.92-71.48,6.55-146.73,64.99-166.54,122.24-41.46,201.39,108.36,127.08,185.74-28.91,33.15-34.68,42.8-34.68,42.8-2.57,0-21.85-14.15-7.39-32.19Z"/>
    <path class="st1" d="M155.08,398.4c19.26.97,49.83,5.79,67.35,13.77,23.28,10.61,14.83,26.63-9.26,23.14-12.29-1.78-26.86-6.47-34.05-8.07-12.4-2.74-25.08-3.25-33.01-7.4-10.8-5.65-16.66-22.72,8.97-21.44Z"/>
    <path class="st1" d="M155.08,439.23c19.26.97,49.83,5.78,67.35,13.77,23.28,10.61,14.83,26.62-9.26,23.15-12.29-1.79-26.86-6.48-34.05-8.08-12.4-2.74-25.08-3.24-33.01-7.4-10.8-5.64-16.66-22.71,8.97-21.43Z"/>
    <path class="st1" d="M206.56,252.51l-10.91,5.41-8.34,4.14c-31.92,15.83-26.24,18.35-24.24-13.12l.76-12.16.59-9.29c2.24-35.56-2.78-31.88,23.49-14.42l10.14,6.74,7.75,5.15c29.67,19.73,28.99,13.54.75,27.56Z"/>
  </g>
  <g>
    <g>
      <path class="st0" d="M411.82,282.23h-34.28v-121.8h112.23v13.57l-13.22,4h-64.73v44.37h61.07v13.4l-13.05,4.18h-48.02v42.28Z"/>
      <path class="st0" d="M608.27,189.14v67.51c0,3.48-.67,6.79-2,9.92-1.33,3.13-3.13,5.86-5.39,8.18-2.26,2.32-4.96,4.15-8.09,5.48-3.13,1.34-6.44,2-9.92,2h-60.9c-3.48,0-6.79-.67-9.92-2-3.13-1.33-5.86-3.16-8.18-5.48-2.32-2.32-4.15-5.05-5.48-8.18-1.33-3.13-2-6.44-2-9.92v-67.51h33.58v64.55c0,3.13,1.1,5.8,3.31,8,2.2,2.2,4.81,3.31,7.83,3.31h22.62c3.02,0,5.63-1.1,7.83-3.31s3.31-4.87,3.31-8v-64.55h33.41Z"/>
      <path class="st0" d="M686.22,265h39.15v10.61l-13.05,6.61h-45.24c-8.35,0-14.68-2.17-18.97-6.52-4.29-4.35-6.44-10.7-6.44-19.05v-52.2h-16.53v-15.31h16.53v-9.74l24.19-13.22h9.22v22.97h37.06v9.92l-13.22,5.39h-23.84v49.24c0,3.13,1.1,5.8,3.31,8,2.2,2.2,4.81,3.31,7.83,3.31Z"/>
      <path class="st0" d="M854.13,189.14v67.51c0,3.48-.67,6.79-2,9.92-1.33,3.13-3.13,5.86-5.39,8.18-2.26,2.32-4.96,4.15-8.09,5.48-3.13,1.34-6.44,2-9.92,2h-60.9c-3.48,0-6.79-.67-9.92-2-3.13-1.33-5.86-3.16-8.18-5.48-2.32-2.32-4.15-5.05-5.48-8.18-1.33-3.13-2-6.44-2-9.92v-67.51h33.58v64.55c0,3.13,1.1,5.8,3.31,8,2.2,2.2,4.81,3.31,7.83,3.31h22.62c3.02,0,5.62-1.1,7.83-3.31,2.2-2.2,3.31-4.87,3.31-8v-64.55h33.41Z"/>
      <path class="st0" d="M958.35,189.14v11.83l-13.22,5.57h-22.1c-3.02,0-5.63,1.1-7.83,3.31-2.2,2.2-3.31,4.81-3.31,7.83v64.55h-33.58v-67.51c0-3.48.67-6.79,2-9.92,1.33-3.13,3.16-5.86,5.48-8.18s5.05-4.15,8.18-5.48c3.13-1.33,6.44-2,9.92-2h54.46Z"/>
      <path class="st0" d="M975.92,282.23v-121.8h110.32v13.57l-13.22,4h-62.81v35.5h55.68v13.4l-13.22,4.18h-42.46v33.58h77.78v13.4l-13.05,4.18h-99.01Z"/>
      <path class="st0" d="M1217.09,139.9v142.33h-33.41v-21.23c-1.97,2.55-4.15,5.08-6.53,7.57-2.38,2.5-4.78,4.76-7.22,6.79-2.44,2.03-4.87,3.68-7.31,4.96-2.44,1.28-4.64,1.91-6.61,1.91h-25.23c-8.35,0-14.7-2.17-19.05-6.52-4.35-4.35-6.53-10.7-6.53-19.05v-41.93c0-8.35,2.18-14.7,6.53-19.05s10.7-6.52,19.05-6.52h52.9v-36.02l24.36-13.22h9.05ZM1183.68,206.54h-33.76c-3.02,0-5.63,1.1-7.83,3.31-2.21,2.2-3.31,4.81-3.31,7.83v38.28c0,6.03,2.96,9.05,8.87,9.05h1.74c2.55,0,5.31-.81,8.26-2.44,2.96-1.62,5.94-3.74,8.96-6.35,3.02-2.61,6-5.57,8.96-8.87s5.65-6.7,8.09-10.18v-30.62Z"/>
      <path class="st0" d="M1353.85,189.14v67.51c0,3.48-.67,6.79-2,9.92-1.33,3.13-3.13,5.86-5.39,8.18-2.26,2.32-4.96,4.15-8.09,5.48-3.13,1.34-6.44,2-9.92,2h-60.9c-3.48,0-6.79-.67-9.92-2-3.13-1.33-5.86-3.16-8.18-5.48-2.32-2.32-4.15-5.05-5.48-8.18-1.33-3.13-2-6.44-2-9.92v-67.51h33.58v64.55c0,3.13,1.1,5.8,3.31,8,2.2,2.2,4.81,3.31,7.83,3.31h22.62c3.02,0,5.62-1.1,7.83-3.31,2.2-2.2,3.31-4.87,3.31-8v-64.55h33.41Z"/>
    </g>
    <g>
      <path class="st0" d="M383.78,307.69h3.48v48.43h-3.48v-48.43Z"/>
      <path class="st0" d="M398.67,329.76v-4.1c0-.51-.01-.99-.04-1.45-.02-.46-.06-.96-.11-1.49h3.05c.05.53.08,1.02.11,1.45.02.44.05.91.07,1.42.02.51.04,1.09.04,1.74v2.36c.39-.73.93-1.55,1.63-2.47.7-.92,1.57-1.78,2.61-2.58,1.04-.8,2.29-1.46,3.74-2,1.45-.53,3.12-.8,5.01-.8,2.37,0,4.37.34,5.99,1.02,1.62.68,2.94,1.66,3.96,2.94,1.02,1.28,1.74,2.83,2.18,4.65.44,1.82.65,3.84.65,6.06v19.6h-3.27v-18.51c0-2.47-.22-4.53-.65-6.17-.44-1.64-1.08-2.95-1.92-3.92-.85-.97-1.89-1.64-3.12-2.03-1.23-.39-2.65-.58-4.25-.58-2.13,0-3.97.44-5.52,1.31-1.55.87-2.83,1.99-3.85,3.34-1.02,1.36-1.78,2.86-2.29,4.5-.51,1.65-.76,3.27-.76,4.86v17.21h-3.27v-26.35Z"/>
      <path class="st0" d="M437.36,349.58c1.4,1.4,3.01,2.48,4.83,3.23,1.82.75,3.96,1.13,6.43,1.13,1.35,0,2.64-.13,3.85-.4,1.21-.27,2.27-.65,3.19-1.16.92-.51,1.64-1.15,2.18-1.92.53-.77.8-1.69.8-2.76,0-1.21-.24-2.2-.73-2.98-.48-.77-1.2-1.42-2.14-1.92-.94-.51-2.13-.94-3.56-1.31-1.43-.36-3.06-.76-4.9-1.2-1.55-.34-2.97-.74-4.25-1.2-1.28-.46-2.38-1.03-3.3-1.71-.92-.68-1.65-1.54-2.18-2.58-.53-1.04-.8-2.33-.8-3.88s.34-2.82,1.02-3.96c.68-1.14,1.58-2.09,2.72-2.87,1.14-.77,2.44-1.34,3.92-1.71,1.48-.36,3.01-.54,4.61-.54,2.61,0,4.92.48,6.93,1.45,2.01.97,3.64,2.2,4.9,3.7l-2.25,2.03c-1.16-1.26-2.5-2.27-4.03-3.05-1.52-.77-3.35-1.16-5.48-1.16-1.07,0-2.13.08-3.19.25-1.07.17-2.03.48-2.9.94-.87.46-1.57,1.09-2.11,1.89-.53.8-.8,1.85-.8,3.16,0,1.07.3,1.96.91,2.69.6.73,1.39,1.33,2.36,1.81.97.48,2.08.88,3.34,1.2,1.26.32,2.52.62,3.78.91,1.35.29,2.72.65,4.1,1.09,1.38.44,2.64,1.01,3.78,1.71,1.14.7,2.06,1.6,2.76,2.69.7,1.09,1.05,2.46,1.05,4.1s-.39,3.15-1.16,4.36c-.77,1.21-1.79,2.21-3.05,3.01-1.26.8-2.69,1.39-4.28,1.78-1.6.39-3.19.58-4.79.58-3.15,0-5.82-.46-8.02-1.38-2.2-.92-4.08-2.15-5.63-3.7l2.11-2.32Z"/>
      <path class="st0" d="M473.81,325.76h-6.68v-3.05h6.68v-11.04h3.27v11.04h11.04v3.05h-11.04v19.31c0,1.99.15,3.57.44,4.76.29,1.19.71,2.08,1.27,2.69.56.61,1.2,1.01,1.92,1.2.73.19,1.52.29,2.4.29,1.21,0,2.25-.22,3.12-.65.87-.44,1.74-1.19,2.61-2.25l2.03,1.96c-.97,1.26-2.07,2.23-3.3,2.9-1.23.68-2.84,1.02-4.83,1.02-1.31,0-2.52-.16-3.63-.47-1.11-.32-2.06-.89-2.83-1.74-.77-.85-1.38-1.98-1.82-3.41-.44-1.43-.65-3.25-.65-5.48v-20.11Z"/>
      <path class="st0" d="M496.1,310.95h4.57v4.72h-4.57v-4.72ZM496.75,322.71h3.27v33.4h-3.27v-33.4Z"/>
      <path class="st0" d="M513.16,325.76h-6.68v-3.05h6.68v-11.04h3.27v11.04h11.04v3.05h-11.04v19.31c0,1.99.15,3.57.44,4.76.29,1.19.71,2.08,1.27,2.69.56.61,1.2,1.01,1.92,1.2.73.19,1.52.29,2.4.29,1.21,0,2.25-.22,3.12-.65.87-.44,1.74-1.19,2.61-2.25l2.03,1.96c-.97,1.26-2.07,2.23-3.3,2.9-1.23.68-2.84,1.02-4.83,1.02-1.31,0-2.52-.16-3.63-.47-1.11-.32-2.06-.89-2.83-1.74-.77-.85-1.38-1.98-1.82-3.41-.44-1.43-.65-3.25-.65-5.48v-20.11Z"/>
      <path class="st0" d="M534.94,322.71h3.27v18.51c0,2.47.21,4.53.62,6.17.41,1.65,1.03,2.95,1.85,3.92.82.97,1.84,1.65,3.05,2.03,1.21.39,2.61.58,4.21.58,2.08,0,3.9-.44,5.45-1.31,1.55-.87,2.82-1.98,3.81-3.34.99-1.35,1.73-2.86,2.21-4.5.48-1.64.73-3.27.73-4.86v-17.21h3.27v30.46c0,.51.01.99.04,1.45.02.46.06.96.11,1.49h-3.05c-.05-.53-.09-1.02-.11-1.45-.02-.44-.05-.91-.07-1.42-.02-.51-.04-1.08-.04-1.71v-2.4c-.39.73-.92,1.55-1.6,2.47-.68.92-1.52,1.78-2.54,2.58-1.02.8-2.24,1.46-3.67,2-1.43.53-3.09.8-4.97.8-2.37,0-4.36-.34-5.95-1.02-1.6-.68-2.89-1.66-3.88-2.94-.99-1.28-1.69-2.82-2.11-4.61-.41-1.79-.62-3.82-.62-6.1v-19.6Z"/>
      <path class="st0" d="M576.54,325.76h-6.68v-3.05h6.68v-11.04h3.27v11.04h11.04v3.05h-11.04v19.31c0,1.99.15,3.57.44,4.76.29,1.19.71,2.08,1.27,2.69.56.61,1.2,1.01,1.92,1.2.73.19,1.52.29,2.4.29,1.21,0,2.25-.22,3.12-.65.87-.44,1.74-1.19,2.61-2.25l2.03,1.96c-.97,1.26-2.07,2.23-3.3,2.9-1.23.68-2.84,1.02-4.83,1.02-1.31,0-2.52-.16-3.63-.47-1.11-.32-2.06-.89-2.83-1.74-.77-.85-1.38-1.98-1.82-3.41-.44-1.43-.65-3.25-.65-5.48v-20.11Z"/>
      <path class="st0" d="M613.06,356.98c-2.37,0-4.6-.46-6.68-1.38-2.08-.92-3.91-2.18-5.48-3.78-1.57-1.6-2.81-3.46-3.7-5.59-.9-2.13-1.34-4.4-1.34-6.82s.45-4.69,1.34-6.82c.9-2.13,2.13-3.99,3.7-5.59,1.57-1.6,3.4-2.86,5.48-3.78,2.08-.92,4.31-1.38,6.68-1.38s4.6.46,6.68,1.38c2.08.92,3.91,2.18,5.48,3.78,1.57,1.6,2.81,3.46,3.7,5.59.89,2.13,1.34,4.4,1.34,6.82s-.45,4.7-1.34,6.82c-.9,2.13-2.13,3.99-3.7,5.59-1.57,1.6-3.4,2.86-5.48,3.78-2.08.92-4.31,1.38-6.68,1.38ZM613.06,354.01c1.94,0,3.75-.39,5.45-1.16,1.69-.77,3.16-1.81,4.39-3.12s2.2-2.84,2.9-4.61c.7-1.77,1.05-3.67,1.05-5.7s-.36-3.79-1.09-5.55c-.73-1.77-1.71-3.33-2.94-4.68-1.23-1.35-2.7-2.42-4.39-3.19-1.69-.77-3.48-1.16-5.37-1.16-1.99,0-3.81.39-5.48,1.16-1.67.77-3.12,1.82-4.36,3.12-1.23,1.31-2.2,2.84-2.9,4.61-.7,1.77-1.05,3.67-1.05,5.7s.36,3.85,1.09,5.59c.73,1.74,1.71,3.29,2.94,4.65,1.23,1.36,2.7,2.42,4.39,3.19,1.69.77,3.48,1.16,5.37,1.16Z"/>
      <path class="st0" d="M677.6,356.11c-.05-.63-.07-1.26-.07-1.89-.05-.53-.07-1.15-.07-1.85v-2.07c-.73,1.26-1.69,2.37-2.9,3.34-1.02.82-2.3,1.59-3.85,2.29-1.55.7-3.41,1.05-5.59,1.05-2.57,0-4.79-.45-6.68-1.34-1.89-.89-3.45-2.12-4.68-3.67-1.23-1.55-2.15-3.38-2.76-5.48-.61-2.11-.91-4.37-.91-6.79,0-2.71.42-5.17,1.27-7.37.85-2.2,2.03-4.08,3.56-5.63,1.52-1.55,3.34-2.75,5.45-3.59,2.11-.85,4.42-1.27,6.93-1.27,1.4,0,2.7.17,3.88.51,1.19.34,2.26.7,3.23,1.09,1.06.48,2.08,1.02,3.05,1.6v-17.35h3.19v44.18c0,.85.02,1.59.07,2.21,0,.77.02,1.45.07,2.03h-3.19ZM677.45,328.59c-.73-.68-1.57-1.28-2.54-1.82-.82-.48-1.89-.92-3.19-1.31-1.31-.39-2.81-.58-4.5-.58s-3.42.28-5.05.83c-1.62.56-3.07,1.44-4.36,2.65-1.28,1.21-2.31,2.76-3.09,4.65-.77,1.89-1.16,4.14-1.16,6.75,0,1.89.22,3.68.65,5.37.44,1.69,1.13,3.19,2.07,4.5.94,1.31,2.17,2.35,3.67,3.12,1.5.77,3.34,1.16,5.52,1.16,2.03,0,3.8-.37,5.3-1.13,1.5-.75,2.75-1.68,3.74-2.8.99-1.11,1.73-2.29,2.21-3.52.48-1.23.73-2.33.73-3.3v-14.59Z"/>
      <path class="st0" d="M719.78,351.1c-1.45,1.84-3.42,3.28-5.92,4.32-2.49,1.04-5.05,1.56-7.66,1.56-2.47,0-4.76-.42-6.86-1.27s-3.91-2.04-5.41-3.59c-1.5-1.55-2.67-3.4-3.52-5.55-.85-2.15-1.27-4.54-1.27-7.15,0-2.42.4-4.69,1.2-6.82.8-2.13,1.9-3.99,3.3-5.59,1.4-1.6,3.1-2.86,5.08-3.78,1.98-.92,4.16-1.38,6.53-1.38s4.39.4,6.35,1.2c1.96.8,3.65,1.97,5.08,3.52,1.43,1.55,2.54,3.47,3.34,5.77.8,2.3,1.2,4.95,1.2,7.95h-28.46c.05,1.89.41,3.67,1.09,5.34.68,1.67,1.6,3.12,2.76,4.36,1.16,1.23,2.55,2.2,4.17,2.9,1.62.7,3.42,1.05,5.41,1.05,1.02,0,2.07-.11,3.16-.33,1.09-.22,2.14-.54,3.16-.98,1.02-.44,1.95-.94,2.8-1.52.85-.58,1.56-1.23,2.14-1.96l2.32,1.96ZM717.67,337.45c-.44-4.11-1.74-7.24-3.92-9.37-2.18-2.13-5.01-3.19-8.49-3.19-1.79,0-3.42.33-4.9.98-1.48.65-2.75,1.55-3.81,2.69-1.07,1.14-1.92,2.47-2.58,3.99-.65,1.52-1.03,3.16-1.13,4.9h24.83Z"/>
      <path class="st0" d="M743.96,307.69h29.04v3.27h-25.56v18.3h19.97v3.27h-19.97v20.33h27.44v3.27h-30.93v-48.43Z"/>
      <path class="st0" d="M809.01,356.11c-.05-.63-.07-1.26-.07-1.89-.05-.53-.07-1.15-.07-1.85v-2.07c-.73,1.26-1.69,2.37-2.9,3.34-1.02.82-2.3,1.59-3.85,2.29-1.55.7-3.41,1.05-5.59,1.05-2.57,0-4.79-.45-6.68-1.34-1.89-.89-3.45-2.12-4.68-3.67-1.23-1.55-2.15-3.38-2.76-5.48-.61-2.11-.91-4.37-.91-6.79,0-2.71.42-5.17,1.27-7.37.85-2.2,2.03-4.08,3.56-5.63,1.52-1.55,3.34-2.75,5.45-3.59,2.11-.85,4.42-1.27,6.93-1.27,1.4,0,2.7.17,3.88.51,1.19.34,2.26.7,3.23,1.09,1.06.48,2.08,1.02,3.05,1.6v-17.35h3.19v44.18c0,.85.02,1.59.07,2.21,0,.77.02,1.45.07,2.03h-3.19ZM808.86,328.59c-.73-.68-1.57-1.28-2.54-1.82-.82-.48-1.89-.92-3.19-1.31-1.31-.39-2.81-.58-4.5-.58s-3.42.28-5.05.83c-1.62.56-3.07,1.44-4.36,2.65-1.28,1.21-2.31,2.76-3.09,4.65-.77,1.89-1.16,4.14-1.16,6.75,0,1.89.22,3.68.65,5.37.44,1.69,1.13,3.19,2.07,4.5.94,1.31,2.17,2.35,3.67,3.12,1.5.77,3.34,1.16,5.52,1.16,2.03,0,3.8-.37,5.3-1.13,1.5-.75,2.75-1.68,3.74-2.8.99-1.11,1.73-2.29,2.21-3.52.48-1.23.73-2.33.73-3.3v-14.59Z"/>
      <path class="st0" d="M821.93,322.71h3.27v18.51c0,2.47.21,4.53.62,6.17.41,1.65,1.03,2.95,1.85,3.92.82.97,1.84,1.65,3.05,2.03,1.21.39,2.61.58,4.21.58,2.08,0,3.9-.44,5.45-1.31,1.55-.87,2.82-1.98,3.81-3.34.99-1.35,1.73-2.86,2.21-4.5.48-1.64.73-3.27.73-4.86v-17.21h3.27v30.46c0,.51.01.99.04,1.45.02.46.06.96.11,1.49h-3.05c-.05-.53-.09-1.02-.11-1.45-.02-.44-.05-.91-.07-1.42-.02-.51-.04-1.08-.04-1.71v-2.4c-.39.73-.92,1.55-1.6,2.47-.68.92-1.52,1.78-2.54,2.58-1.02.8-2.24,1.46-3.67,2-1.43.53-3.09.8-4.97.8-2.37,0-4.36-.34-5.95-1.02-1.6-.68-2.89-1.66-3.88-2.94-.99-1.28-1.69-2.82-2.11-4.61-.41-1.79-.62-3.82-.62-6.1v-19.6Z"/>
      <path class="st0" d="M888.87,351.17c-1.4,1.69-3.23,3.09-5.48,4.17s-4.83,1.63-7.73,1.63c-2.42,0-4.66-.45-6.72-1.34-2.06-.89-3.84-2.13-5.34-3.7-1.5-1.57-2.66-3.44-3.49-5.59-.82-2.15-1.23-4.46-1.23-6.93s.42-4.78,1.27-6.93c.85-2.15,2.02-4.02,3.52-5.59,1.5-1.57,3.28-2.81,5.34-3.7,2.06-.9,4.27-1.34,6.64-1.34,2.95,0,5.46.52,7.51,1.56,2.06,1.04,3.81,2.48,5.26,4.32l-2.47,1.89c-1.11-1.45-2.5-2.6-4.17-3.45-1.67-.85-3.71-1.27-6.13-1.27-1.94,0-3.72.39-5.34,1.16-1.62.77-3.03,1.82-4.21,3.12-1.19,1.31-2.11,2.84-2.76,4.61-.65,1.77-.98,3.64-.98,5.63s.34,3.86,1.02,5.63c.68,1.77,1.61,3.3,2.8,4.61,1.19,1.31,2.59,2.35,4.21,3.12,1.62.77,3.38,1.16,5.26,1.16,2.42,0,4.56-.44,6.42-1.31,1.86-.87,3.35-2.03,4.47-3.48l2.32,2.03Z"/>
      <path class="st0" d="M919.36,356.11c-.05-.44-.07-.92-.07-1.45-.05-.48-.07-1.06-.07-1.74v-2.4c-.87,1.26-1.83,2.31-2.87,3.16-1.04.85-2.13,1.51-3.27,2-1.14.48-2.25.82-3.34,1.02-1.09.19-2.09.29-3.01.29-1.4,0-2.81-.15-4.21-.44-1.4-.29-2.66-.81-3.78-1.56-1.11-.75-2.02-1.77-2.72-3.05-.7-1.28-1.05-2.92-1.05-4.9,0-1.6.27-3.11.8-4.54.53-1.43,1.38-2.66,2.54-3.7,1.16-1.04,2.66-1.86,4.5-2.47,1.84-.6,4.07-.91,6.68-.91,2.03,0,3.85.07,5.45.22,1.6.15,2.95.32,4.07.51v-1.89c0-1.84-.22-3.36-.65-4.57-.44-1.21-1.09-2.18-1.96-2.9-.87-.73-1.94-1.23-3.19-1.52-1.26-.29-2.71-.44-4.36-.44-2.76,0-4.95.4-6.57,1.2-1.62.8-2.87,1.56-3.74,2.29l-1.74-2.25c.92-.87,2.41-1.79,4.47-2.76,2.06-.97,4.56-1.45,7.51-1.45,4.31,0,7.63.92,9.98,2.76,2.35,1.84,3.52,4.89,3.52,9.15v18.11c0,.85.02,1.59.07,2.21.05.77.1,1.45.14,2.03h-3.12ZM919.07,339.05c-1.02-.24-2.29-.45-3.81-.62-1.52-.17-3.47-.25-5.84-.25s-4.43.3-5.88.91c-1.45.61-2.55,1.36-3.3,2.25-.75.9-1.23,1.86-1.45,2.9-.22,1.04-.33,1.97-.33,2.8,0,2.42.81,4.19,2.43,5.3,1.62,1.11,3.69,1.67,6.21,1.67,1.64,0,3.19-.29,4.65-.87,1.45-.58,2.72-1.35,3.81-2.32,1.09-.97,1.95-2.07,2.58-3.3.63-1.23.94-2.48.94-3.74v-4.72Z"/>
      <path class="st0" d="M960.52,351.17c-1.4,1.69-3.23,3.09-5.48,4.17s-4.83,1.63-7.73,1.63c-2.42,0-4.66-.45-6.72-1.34-2.06-.89-3.84-2.13-5.34-3.7-1.5-1.57-2.66-3.44-3.48-5.59-.82-2.15-1.23-4.46-1.23-6.93s.42-4.78,1.27-6.93c.85-2.15,2.02-4.02,3.52-5.59,1.5-1.57,3.28-2.81,5.34-3.7,2.06-.9,4.27-1.34,6.64-1.34,2.95,0,5.46.52,7.51,1.56,2.06,1.04,3.81,2.48,5.26,4.32l-2.47,1.89c-1.11-1.45-2.5-2.6-4.17-3.45-1.67-.85-3.72-1.27-6.14-1.27-1.94,0-3.72.39-5.34,1.16-1.62.77-3.03,1.82-4.21,3.12-1.19,1.31-2.11,2.84-2.76,4.61-.65,1.77-.98,3.64-.98,5.63s.34,3.86,1.02,5.63c.68,1.77,1.61,3.3,2.8,4.61,1.19,1.31,2.59,2.35,4.21,3.12,1.62.77,3.38,1.16,5.26,1.16,2.42,0,4.56-.44,6.43-1.31,1.86-.87,3.35-2.03,4.46-3.48l2.32,2.03ZM940.56,368.09c.68.29,1.48.57,2.4.83.92.27,1.96.4,3.12.4,1.74,0,3.09-.3,4.03-.91.94-.61,1.42-1.46,1.42-2.58,0-.97-.36-1.73-1.09-2.29-.73-.56-1.89-.83-3.48-.83-.97,0-1.88.08-2.72.25-.85.17-1.83.45-2.94.83l.44-2.54c.58-.19,1.29-.42,2.14-.69.85-.27,2.17-.4,3.96-.4,1.16,0,2.18.17,3.05.51.87.34,1.57.76,2.11,1.27.53.51.93,1.1,1.2,1.78.27.68.4,1.33.4,1.96,0,2.03-.79,3.57-2.36,4.61-1.57,1.04-3.55,1.56-5.92,1.56-1.79,0-3.16-.16-4.1-.47-.94-.32-1.68-.59-2.21-.83l.58-2.47Z"/>
      <path class="st0" d="M991.02,356.11c-.05-.44-.07-.92-.07-1.45-.05-.48-.07-1.06-.07-1.74v-2.4c-.87,1.26-1.83,2.31-2.87,3.16-1.04.85-2.13,1.51-3.27,2-1.14.48-2.25.82-3.34,1.02-1.09.19-2.09.29-3.01.29-1.4,0-2.81-.15-4.21-.44-1.4-.29-2.66-.81-3.78-1.56-1.11-.75-2.02-1.77-2.72-3.05-.7-1.28-1.05-2.92-1.05-4.9,0-1.6.27-3.11.8-4.54.53-1.43,1.38-2.66,2.54-3.7,1.16-1.04,2.66-1.86,4.5-2.47,1.84-.6,4.07-.91,6.68-.91,2.03,0,3.85.07,5.45.22,1.6.15,2.95.32,4.07.51v-1.89c0-1.84-.22-3.36-.65-4.57-.44-1.21-1.09-2.18-1.96-2.9-.87-.73-1.94-1.23-3.19-1.52-1.26-.29-2.71-.44-4.36-.44-2.76,0-4.95.4-6.57,1.2-1.62.8-2.87,1.56-3.74,2.29l-1.74-2.25c.92-.87,2.41-1.79,4.46-2.76,2.06-.97,4.56-1.45,7.51-1.45,4.31,0,7.63.92,9.98,2.76,2.35,1.84,3.52,4.89,3.52,9.15v18.11c0,.85.02,1.59.07,2.21.05.77.1,1.45.14,2.03h-3.12ZM969.89,313.13c.92-1.06,2-1.92,3.23-2.58,1.23-.65,2.5-.98,3.81-.98,1.11,0,2.07.18,2.87.54.8.36,1.52.75,2.18,1.16.65.41,1.29.8,1.92,1.16.63.36,1.35.54,2.18.54.87,0,1.69-.22,2.47-.65.77-.44,1.64-1.14,2.61-2.11l1.67,2.18c-.92,1.07-2,1.91-3.23,2.54-1.23.63-2.5.94-3.81.94-1.11,0-2.06-.18-2.83-.54-.77-.36-1.49-.75-2.14-1.16-.65-.41-1.31-.8-1.96-1.16-.65-.36-1.39-.54-2.21-.54-.87,0-1.69.17-2.47.51-.77.34-1.65.99-2.61,1.96l-1.67-1.81ZM990.73,339.05c-1.02-.24-2.29-.45-3.81-.62-1.52-.17-3.47-.25-5.84-.25s-4.43.3-5.88.91c-1.45.61-2.55,1.36-3.3,2.25-.75.9-1.23,1.86-1.45,2.9-.22,1.04-.33,1.97-.33,2.8,0,2.42.81,4.19,2.43,5.3,1.62,1.11,3.69,1.67,6.21,1.67,1.64,0,3.19-.29,4.65-.87,1.45-.58,2.72-1.35,3.81-2.32,1.09-.97,1.95-2.07,2.58-3.3.63-1.23.94-2.48.94-3.74v-4.72Z"/>
      <path class="st0" d="M1019.4,356.98c-2.37,0-4.6-.46-6.68-1.38-2.08-.92-3.91-2.18-5.48-3.78-1.57-1.6-2.81-3.46-3.7-5.59-.9-2.13-1.34-4.4-1.34-6.82s.45-4.69,1.34-6.82c.89-2.13,2.13-3.99,3.7-5.59,1.57-1.6,3.4-2.86,5.48-3.78,2.08-.92,4.31-1.38,6.68-1.38s4.6.46,6.68,1.38c2.08.92,3.91,2.18,5.48,3.78,1.57,1.6,2.81,3.46,3.7,5.59.9,2.13,1.34,4.4,1.34,6.82s-.45,4.7-1.34,6.82c-.9,2.13-2.13,3.99-3.7,5.59-1.57,1.6-3.4,2.86-5.48,3.78-2.08.92-4.31,1.38-6.68,1.38ZM1019.4,354.01c1.94,0,3.75-.39,5.45-1.16,1.69-.77,3.16-1.81,4.39-3.12s2.2-2.84,2.9-4.61c.7-1.77,1.05-3.67,1.05-5.7s-.36-3.79-1.09-5.55c-.73-1.77-1.71-3.33-2.94-4.68-1.23-1.35-2.7-2.42-4.39-3.19-1.69-.77-3.49-1.16-5.37-1.16-1.99,0-3.81.39-5.48,1.16-1.67.77-3.12,1.82-4.36,3.12-1.23,1.31-2.2,2.84-2.9,4.61-.7,1.77-1.05,3.67-1.05,5.7s.36,3.85,1.09,5.59c.73,1.74,1.71,3.29,2.94,4.65,1.23,1.36,2.7,2.42,4.39,3.19,1.69.77,3.48,1.16,5.37,1.16Z"/>
      <path class="st0" d="M1074.36,307.69h3.48l19.82,48.43h-3.99l-6.32-15.61h-22.8l-6.24,15.61h-3.78l19.82-48.43ZM1086.05,337.23l-10.09-25.12-10.09,25.12h20.18Z"/>
      <path class="st0" d="M1096.94,322.71h3.7l12.56,29.4,12.49-29.4h3.41l-14.52,33.4h-3.05l-14.59-33.4Z"/>
      <path class="st0" d="M1155.53,356.11c-.05-.44-.07-.92-.07-1.45-.05-.48-.07-1.06-.07-1.74v-2.4c-.87,1.26-1.83,2.31-2.87,3.16-1.04.85-2.13,1.51-3.27,2-1.14.48-2.25.82-3.34,1.02-1.09.19-2.09.29-3.01.29-1.4,0-2.81-.15-4.21-.44-1.4-.29-2.66-.81-3.78-1.56-1.11-.75-2.02-1.77-2.72-3.05-.7-1.28-1.05-2.92-1.05-4.9,0-1.6.27-3.11.8-4.54.53-1.43,1.38-2.66,2.54-3.7,1.16-1.04,2.66-1.86,4.5-2.47,1.84-.6,4.07-.91,6.68-.91,2.03,0,3.85.07,5.45.22,1.6.15,2.95.32,4.07.51v-1.89c0-1.84-.22-3.36-.65-4.57-.44-1.21-1.09-2.18-1.96-2.9-.87-.73-1.94-1.23-3.19-1.52-1.26-.29-2.71-.44-4.36-.44-2.76,0-4.95.4-6.57,1.2-1.62.8-2.87,1.56-3.74,2.29l-1.74-2.25c.92-.87,2.41-1.79,4.46-2.76,2.06-.97,4.56-1.45,7.51-1.45,4.31,0,7.63.92,9.98,2.76,2.35,1.84,3.52,4.89,3.52,9.15v18.11c0,.85.02,1.59.07,2.21.05.77.1,1.45.14,2.03h-3.12ZM1155.24,339.05c-1.02-.24-2.29-.45-3.81-.62-1.52-.17-3.47-.25-5.84-.25s-4.43.3-5.88.91c-1.45.61-2.55,1.36-3.3,2.25-.75.9-1.23,1.86-1.45,2.9-.22,1.04-.33,1.97-.33,2.8,0,2.42.81,4.19,2.43,5.3,1.62,1.11,3.69,1.67,6.21,1.67,1.64,0,3.19-.29,4.65-.87,1.45-.58,2.72-1.35,3.81-2.32,1.09-.97,1.95-2.07,2.58-3.3.63-1.23.94-2.48.94-3.74v-4.72Z"/>
      <path class="st0" d="M1168.53,329.76v-4.1c0-.51-.01-.99-.04-1.45-.02-.46-.06-.96-.11-1.49h3.05c.05.53.08,1.02.11,1.45.02.44.05.91.07,1.42.02.51.04,1.09.04,1.74v2.36c.39-.73.93-1.55,1.63-2.47.7-.92,1.57-1.78,2.61-2.58,1.04-.8,2.29-1.46,3.74-2,1.45-.53,3.12-.8,5.01-.8,2.37,0,4.37.34,5.99,1.02,1.62.68,2.94,1.66,3.96,2.94,1.02,1.28,1.74,2.83,2.18,4.65s.65,3.84.65,6.06v19.6h-3.27v-18.51c0-2.47-.22-4.53-.65-6.17-.44-1.64-1.08-2.95-1.92-3.92-.85-.97-1.89-1.64-3.12-2.03-1.23-.39-2.65-.58-4.25-.58-2.13,0-3.97.44-5.52,1.31-1.55.87-2.83,1.99-3.85,3.34-1.02,1.36-1.78,2.86-2.29,4.5-.51,1.65-.76,3.27-.76,4.86v17.21h-3.27v-26.35Z"/>
      <path class="st0" d="M1235.46,351.17c-1.4,1.69-3.23,3.09-5.48,4.17s-4.83,1.63-7.73,1.63c-2.42,0-4.66-.45-6.72-1.34-2.06-.89-3.84-2.13-5.34-3.7-1.5-1.57-2.66-3.44-3.48-5.59-.82-2.15-1.23-4.46-1.23-6.93s.42-4.78,1.27-6.93c.85-2.15,2.02-4.02,3.52-5.59,1.5-1.57,3.28-2.81,5.34-3.7,2.06-.9,4.27-1.34,6.64-1.34,2.95,0,5.46.52,7.51,1.56,2.06,1.04,3.81,2.48,5.26,4.32l-2.47,1.89c-1.11-1.45-2.5-2.6-4.17-3.45-1.67-.85-3.72-1.27-6.14-1.27-1.94,0-3.72.39-5.34,1.16-1.62.77-3.03,1.82-4.21,3.12-1.19,1.31-2.11,2.84-2.76,4.61-.65,1.77-.98,3.64-.98,5.63s.34,3.86,1.02,5.63c.68,1.77,1.61,3.3,2.8,4.61,1.19,1.31,2.59,2.35,4.21,3.12,1.62.77,3.38,1.16,5.26,1.16,2.42,0,4.56-.44,6.43-1.31,1.86-.87,3.35-2.03,4.46-3.48l2.32,2.03ZM1215.5,368.09c.68.29,1.48.57,2.4.83.92.27,1.96.4,3.12.4,1.74,0,3.09-.3,4.03-.91.94-.61,1.42-1.46,1.42-2.58,0-.97-.36-1.73-1.09-2.29-.73-.56-1.89-.83-3.48-.83-.97,0-1.88.08-2.72.25-.85.17-1.83.45-2.94.83l.44-2.54c.58-.19,1.29-.42,2.14-.69.85-.27,2.17-.4,3.96-.4,1.16,0,2.18.17,3.05.51.87.34,1.57.76,2.11,1.27.53.51.93,1.1,1.2,1.78.27.68.4,1.33.4,1.96,0,2.03-.79,3.57-2.36,4.61-1.57,1.04-3.55,1.56-5.92,1.56-1.79,0-3.16-.16-4.1-.47-.94-.32-1.68-.59-2.21-.83l.58-2.47Z"/>
      <path class="st0" d="M1265.96,356.11c-.05-.44-.07-.92-.07-1.45-.05-.48-.07-1.06-.07-1.74v-2.4c-.87,1.26-1.83,2.31-2.87,3.16-1.04.85-2.13,1.51-3.27,2-1.14.48-2.25.82-3.34,1.02-1.09.19-2.09.29-3.01.29-1.4,0-2.81-.15-4.21-.44-1.4-.29-2.66-.81-3.78-1.56-1.11-.75-2.02-1.77-2.72-3.05-.7-1.28-1.05-2.92-1.05-4.9,0-1.6.27-3.11.8-4.54.53-1.43,1.38-2.66,2.54-3.7,1.16-1.04,2.66-1.86,4.5-2.47,1.84-.6,4.07-.91,6.68-.91,2.03,0,3.85.07,5.45.22,1.6.15,2.95.32,4.07.51v-1.89c0-1.84-.22-3.36-.65-4.57-.44-1.21-1.09-2.18-1.96-2.9-.87-.73-1.94-1.23-3.19-1.52-1.26-.29-2.71-.44-4.36-.44-2.76,0-4.95.4-6.57,1.2-1.62.8-2.87,1.56-3.74,2.29l-1.74-2.25c.92-.87,2.41-1.79,4.46-2.76,2.06-.97,4.56-1.45,7.51-1.45,4.31,0,7.63.92,9.98,2.76,2.35,1.84,3.52,4.89,3.52,9.15v18.11c0,.85.02,1.59.07,2.21.05.77.1,1.45.14,2.03h-3.12ZM1265.67,339.05c-1.02-.24-2.29-.45-3.81-.62-1.52-.17-3.47-.25-5.84-.25s-4.43.3-5.88.91c-1.45.61-2.55,1.36-3.3,2.25-.75.9-1.23,1.86-1.45,2.9-.22,1.04-.33,1.97-.33,2.8,0,2.42.81,4.19,2.43,5.3,1.62,1.11,3.69,1.67,6.21,1.67,1.64,0,3.19-.29,4.65-.87,1.45-.58,2.72-1.35,3.81-2.32,1.09-.97,1.95-2.07,2.58-3.3.63-1.23.94-2.48.94-3.74v-4.72Z"/>
      <path class="st0" d="M1304.65,356.11c-.05-.63-.07-1.26-.07-1.89-.05-.53-.07-1.15-.07-1.85v-2.07c-.73,1.26-1.69,2.37-2.9,3.34-1.02.82-2.3,1.59-3.85,2.29-1.55.7-3.41,1.05-5.59,1.05-2.57,0-4.79-.45-6.68-1.34-1.89-.89-3.45-2.12-4.68-3.67-1.23-1.55-2.15-3.38-2.76-5.48-.61-2.11-.91-4.37-.91-6.79,0-2.71.42-5.17,1.27-7.37.85-2.2,2.03-4.08,3.56-5.63,1.52-1.55,3.34-2.75,5.45-3.59,2.11-.85,4.42-1.27,6.93-1.27,1.4,0,2.7.17,3.88.51,1.19.34,2.26.7,3.23,1.09,1.06.48,2.08,1.02,3.05,1.6v-17.35h3.19v44.18c0,.85.02,1.59.07,2.21,0,.77.02,1.45.07,2.03h-3.19ZM1304.51,328.59c-.73-.68-1.57-1.28-2.54-1.82-.82-.48-1.89-.92-3.19-1.31-1.31-.39-2.81-.58-4.5-.58s-3.42.28-5.05.83c-1.62.56-3.07,1.44-4.36,2.65-1.28,1.21-2.31,2.76-3.09,4.65-.78,1.89-1.16,4.14-1.16,6.75,0,1.89.22,3.68.65,5.37.44,1.69,1.13,3.19,2.07,4.5.94,1.31,2.17,2.35,3.67,3.12,1.5.77,3.34,1.16,5.52,1.16,2.03,0,3.8-.37,5.3-1.13,1.5-.75,2.75-1.68,3.74-2.8.99-1.11,1.73-2.29,2.21-3.52.48-1.23.73-2.33.73-3.3v-14.59Z"/>
      <path class="st0" d="M1340.73,356.11c-.05-.44-.07-.92-.07-1.45-.05-.48-.07-1.06-.07-1.74v-2.4c-.87,1.26-1.83,2.31-2.87,3.16-1.04.85-2.13,1.51-3.27,2-1.14.48-2.25.82-3.34,1.02-1.09.19-2.09.29-3.01.29-1.4,0-2.81-.15-4.21-.44-1.4-.29-2.66-.81-3.78-1.56-1.11-.75-2.02-1.77-2.72-3.05-.7-1.28-1.05-2.92-1.05-4.9,0-1.6.27-3.11.8-4.54.53-1.43,1.38-2.66,2.54-3.7,1.16-1.04,2.66-1.86,4.5-2.47,1.84-.6,4.07-.91,6.68-.91,2.03,0,3.85.07,5.45.22,1.6.15,2.95.32,4.07.51v-1.89c0-1.84-.22-3.36-.65-4.57-.44-1.21-1.09-2.18-1.96-2.9-.87-.73-1.94-1.23-3.19-1.52-1.26-.29-2.71-.44-4.36-.44-2.76,0-4.95.4-6.57,1.2-1.62.8-2.87,1.56-3.74,2.29l-1.74-2.25c.92-.87,2.41-1.79,4.46-2.76,2.06-.97,4.56-1.45,7.51-1.45,4.31,0,7.63.92,9.98,2.76,2.35,1.84,3.52,4.89,3.52,9.15v18.11c0,.85.02,1.59.07,2.21.05.77.1,1.45.14,2.03h-3.12ZM1340.44,339.05c-1.02-.24-2.29-.45-3.81-.62-1.52-.17-3.47-.25-5.84-.25s-4.43.3-5.88.91c-1.45.61-2.55,1.36-3.3,2.25-.75.9-1.23,1.86-1.45,2.9-.22,1.04-.33,1.97-.33,2.8,0,2.42.81,4.19,2.43,5.3,1.62,1.11,3.69,1.67,6.21,1.67,1.64,0,3.19-.29,4.65-.87,1.45-.58,2.72-1.35,3.81-2.32,1.09-.97,1.95-2.07,2.58-3.3.63-1.23.94-2.48.94-3.74v-4.72Z"/>
    </g>
  </g>
</svg>